<?xml version="1.0" encoding="UTF-8"?>
<!DOCTYPE svg PUBLIC "-//W3C//DTD SVG 1.1//EN" "http://www.w3.org/Graphics/SVG/1.1/DTD/svg11.dtd">
<svg xmlns="http://www.w3.org/2000/svg" version="1.1" width="2000px" height="1200px" style="shape-rendering:geometricPrecision; text-rendering:geometricPrecision; image-rendering:optimizeQuality; fill-rule:evenodd; clip-rule:evenodd" xmlns:xlink="http://www.w3.org/1999/xlink">
<g><path style="opacity:1" fill="#4ade7f" d="M 963.5,-0.5 C 986.833,-0.5 1010.17,-0.5 1033.5,-0.5C 1096.4,3.24869 1158.07,15.7487 1218.5,37C 1231.63,43.1989 1245.47,49.0322 1260,54.5C 1296.31,72.2337 1331.14,92.4003 1364.5,115C 1365.17,116 1365.83,117 1366.5,118C 1378.02,126.015 1389.35,134.349 1400.5,143C 1440.8,178.933 1476.3,217.433 1507,258.5C 1512.32,266.488 1517.65,274.488 1523,282.5C 1523.49,283.793 1523.66,285.127 1523.5,286.5C 1524.5,286.5 1525.5,286.5 1526.5,286.5C 1541.73,312.963 1555.9,339.963 1569,367.5C 1579.26,393.937 1588.92,420.604 1598,447.5C 1626.11,556.839 1626.61,666.339 1599.5,776C 1597.66,780.518 1596.33,785.184 1595.5,790C 1593.86,791.032 1593.52,792.199 1594.5,793.5C 1593.67,796.161 1592.83,798.828 1592,801.5C 1591.5,802.667 1590.67,803.5 1589.5,804C 1589.64,805.597 1589.64,807.097 1589.5,808.5C 1583.12,825.458 1576.62,842.458 1570,859.5C 1556.06,888.922 1541.22,917.089 1525.5,944C 1521.65,947.878 1518.48,952.378 1516,957.5C 1510.45,966.16 1504.45,974.493 1498,982.5C 1497.52,983.448 1497.35,984.448 1497.5,985.5C 1494.54,985.117 1493.54,986.117 1494.5,988.5C 1492.81,989.228 1491.31,990.228 1490,991.5C 1481.41,1004.25 1471.58,1015.92 1460.5,1026.5C 1460.71,1027.09 1461.04,1027.59 1461.5,1028C 1457.5,1031.33 1453.5,1034.67 1449.5,1038C 1443.59,1045.95 1436.59,1053.61 1428.5,1061C 1427.5,1061.33 1426.5,1061.67 1425.5,1062C 1416.99,1069.34 1408.99,1077.18 1401.5,1085.5C 1384.02,1098.48 1366.69,1111.65 1349.5,1125C 1321.87,1141.91 1293.54,1157.91 1264.5,1173C 1242.98,1181.57 1221.32,1190.07 1199.5,1198.5C 1198.91,1198.29 1198.41,1197.96 1198,1197.5C 1195.39,1198.12 1192.89,1198.79 1190.5,1199.5C 1188.17,1199.5 1185.83,1199.5 1183.5,1199.5C 1178.51,1198.32 1173.51,1196.82 1168.5,1195C 1154.12,1185.61 1145.29,1172.45 1142,1155.5C 1141.67,1094.5 1141.33,1033.5 1141,972.5C 1140.64,953.75 1139.31,935.083 1137,916.5C 1135.37,909.944 1133.54,903.444 1131.5,897C 1132.06,891.871 1134.39,887.871 1138.5,885C 1151.72,881.362 1165.05,878.362 1178.5,876C 1201.26,868.97 1223.43,861.47 1245,853.5C 1257.95,846.275 1271.12,839.442 1284.5,833C 1294.97,826.514 1305.31,819.847 1315.5,813C 1319.39,807.73 1324.39,803.73 1330.5,801C 1339.23,791.938 1348.4,783.105 1358,774.5C 1359.21,770.948 1361.55,768.282 1365,766.5C 1374.9,754.251 1383.73,741.085 1391.5,727C 1392.15,725.56 1392.48,724.06 1392.5,722.5C 1393.5,722.5 1394.5,722.5 1395.5,722.5C 1423.27,664.657 1432.77,603.657 1424,539.5C 1420.33,512.439 1414,486.106 1405,460.5C 1403.35,459.109 1402.85,457.609 1403.5,456C 1395.59,442.715 1388.09,428.548 1381,413.5C 1380.25,412.874 1379.42,412.374 1378.5,412C 1378.83,411.667 1379.17,411.333 1379.5,411C 1369.93,399.391 1360.77,387.557 1352,375.5C 1351.33,371.167 1351.33,366.833 1352,362.5C 1356.59,350.005 1360.09,336.838 1362.5,323C 1362.75,321.674 1363.42,320.674 1364.5,320C 1362.97,312.377 1363.3,304.877 1365.5,297.5C 1365.18,283.027 1363.84,268.694 1361.5,254.5C 1358.55,238.45 1353.55,222.784 1346.5,207.5C 1344.25,204.662 1342.25,201.662 1340.5,198.5C 1337.19,196.518 1334.19,194.185 1331.5,191.5C 1321.14,190.416 1310.81,190.916 1300.5,193C 1291.74,195.771 1282.74,197.771 1273.5,199C 1249.3,206.452 1226.3,216.452 1204.5,229C 1195.73,236.402 1186.4,243.069 1176.5,249C 1170.91,253.254 1165.91,258.254 1161.5,264C 1156.2,268.159 1150.2,269.826 1143.5,269C 1119.95,262.09 1095.95,257.09 1071.5,254C 1003.82,245.572 936.821,249.239 870.5,265C 863.406,267.021 856.406,269.187 849.5,271.5C 839.942,267.453 831.942,261.286 825.5,253C 816.253,246.948 807.253,240.614 798.5,234C 797.833,233 797.167,232 796.5,231C 776.871,219.186 756.204,209.52 734.5,202C 722.649,199.454 710.982,196.454 699.5,193C 689.208,191.421 678.874,190.754 668.5,191C 661.303,195.198 655.803,201.032 652,208.5C 644.293,224.251 639.127,240.585 636.5,257.5C 631.823,289.141 634.323,320.141 644,350.5C 646.369,355.52 648.702,360.52 651,365.5C 652.521,372.273 651.188,378.273 647,383.5C 612.319,421.667 589.652,466.333 579,517.5C 571.12,559.039 570.454,600.706 577,642.5C 583.412,677.76 596.079,710.427 615,740.5C 621.527,751.384 629.36,761.05 638.5,769.5C 639.281,770.729 639.781,772.062 640,773.5C 648.167,780.333 655.667,787.833 662.5,796C 663.5,796.333 664.5,796.667 665.5,797C 670.5,802.18 676.167,806.347 682.5,809.5C 682.33,810.822 682.663,811.989 683.5,813C 710.601,831.223 739.268,846.89 769.5,860C 786.497,865.109 803.497,870.442 820.5,876C 835.032,878.55 849.365,881.883 863.5,886C 865.87,889.192 867.536,892.692 868.5,896.5C 863.776,910.621 860.776,925.121 859.5,940C 859.371,941.981 858.704,943.647 857.5,945C 862.719,959.214 858.719,969.881 845.5,977C 805.296,986.479 765.962,983.812 727.5,969C 716.987,963.041 706.653,956.708 696.5,950C 689.645,944.143 683.145,937.976 677,931.5C 673.423,924.69 669.09,918.356 664,912.5C 663.517,911.552 663.351,910.552 663.5,909.5C 662.5,909.5 661.5,909.5 660.5,909.5C 660.009,906.99 659.009,904.656 657.5,902.5C 650.609,895.209 643.609,888.043 636.5,881C 624.345,872.597 611.678,865.93 598.5,861C 592.135,859.825 585.801,858.492 579.5,857C 573.5,856.333 567.5,856.333 561.5,857C 553.408,857.703 548.741,862.036 547.5,870C 556.337,880.398 566.337,889.398 577.5,897C 582.833,903.193 588.333,909.027 594,914.5C 610.025,935.814 622.692,959.147 632,984.5C 634.761,985.499 636.094,987.499 636,990.5C 644.255,1003.45 654.089,1015.28 665.5,1026C 672.964,1032.24 680.964,1037.74 689.5,1042.5C 690.386,1043.32 690.719,1044.32 690.5,1045.5C 701.715,1051.31 713.381,1056.48 725.5,1061C 764.927,1072.84 804.927,1074.67 845.5,1066.5C 851.724,1066.69 855.89,1069.69 858,1075.5C 858.167,1088.33 858.333,1101.17 858.5,1114C 858.49,1127.22 857.824,1140.22 856.5,1153C 856.399,1162.17 853.566,1170.67 848,1178.5C 841.958,1187.53 833.791,1194.03 823.5,1198C 819.975,1198.18 816.641,1198.68 813.5,1199.5C 812.167,1199.5 810.833,1199.5 809.5,1199.5C 806.772,1198.79 803.939,1198.13 801,1197.5C 800.586,1197.96 800.086,1198.29 799.5,1198.5C 775.522,1189.76 751.856,1180.26 728.5,1170C 701.672,1155.55 675.338,1140.55 649.5,1125C 632.375,1111.73 615.042,1098.56 597.5,1085.5C 589.993,1077.16 581.993,1069.33 573.5,1062C 572.5,1061.67 571.5,1061.33 570.5,1061C 559.298,1049.47 548.465,1037.63 538,1025.5C 535.333,1023.5 532.667,1021.5 530,1019.5C 522.828,1010.4 515.828,1001.06 509,991.5C 507.693,990.228 506.193,989.228 504.5,988.5C 505.462,986.117 504.462,985.117 501.5,985.5C 501.649,984.448 501.483,983.448 501,982.5C 401.744,847.874 363.077,695.874 385,526.5C 397.468,440.721 426.635,361.554 472.5,289C 472.167,288.667 471.833,288.333 471.5,288C 472.5,287.5 473.5,287 474.5,286.5C 484.886,267.531 497.053,250.531 511,235.5C 512.276,232.72 513.776,230.053 515.5,227.5C 520.896,222.274 525.729,216.608 530,210.5C 549.833,189.333 570.333,168.833 591.5,149C 611.163,134.005 630.829,119.005 650.5,104C 668.163,93.6292 685.496,82.9626 702.5,72C 734.434,57.0239 766.768,43.0239 799.5,30C 846.111,15.6141 893.111,5.94746 940.5,1C 948.344,0.829022 956.011,0.329022 963.5,-0.5 Z"/></g>
</svg>
