<?xml version="1.0" encoding="UTF-8"?>
<!DOCTYPE svg PUBLIC "-//W3C//DTD SVG 1.1//EN" "http://www.w3.org/Graphics/SVG/1.1/DTD/svg11.dtd">
<svg xmlns="http://www.w3.org/2000/svg" version="1.1" width="2000px" height="1200px" style="shape-rendering:geometricPrecision; text-rendering:geometricPrecision; image-rendering:optimizeQuality; fill-rule:evenodd; clip-rule:evenodd" xmlns:xlink="http://www.w3.org/1999/xlink">
<g><path style="opacity:1" fill="#4ade7f" d="M 439.5,-0.5 C 812.833,-0.5 1186.17,-0.5 1559.5,-0.5C 1580.49,4.98567 1593.65,18.319 1599,39.5C 1599.67,412.833 1599.67,786.167 1599,1159.5C 1593.65,1180.68 1580.49,1194.01 1559.5,1199.5C 1186.17,1199.5 812.833,1199.5 439.5,1199.5C 418.515,1194.01 405.348,1180.68 400,1159.5C 399.333,786.167 399.333,412.833 400,39.5C 405.348,18.319 418.515,4.98567 439.5,-0.5 Z M 569.5,146.5 C 571.448,144.68 572.448,142.346 572.5,139.5C 573.5,139.5 574.5,139.5 575.5,139.5C 575.5,138.5 575.5,137.5 575.5,136.5C 576.552,136.649 577.552,136.483 578.5,136C 579.833,135.333 579.833,134.667 578.5,134C 580.044,133.71 581.377,133.044 582.5,132C 582.167,131.667 581.833,131.333 581.5,131C 583.992,129.396 586.659,128.062 589.5,127C 590.833,126.333 590.833,125.667 589.5,125C 590.833,124.667 592.167,124.333 593.5,124C 594.833,123.333 594.833,122.667 593.5,122C 594.793,121.51 596.127,121.343 597.5,121.5C 597.5,120.5 597.5,119.5 597.5,118.5C 598.873,118.657 600.207,118.49 601.5,118C 603.362,116.244 605.362,114.744 607.5,113.5C 613.135,110.803 619.135,109.303 625.5,109C 625.957,108.586 626.291,108.086 626.5,107.5C 648.174,103.528 669.841,103.528 691.5,107.5C 698.032,109.094 704.366,111.094 710.5,113.5C 711.714,115.069 713.381,115.902 715.5,116C 714.167,116.667 714.167,117.333 715.5,118C 717.167,118.333 718.833,118.667 720.5,119C 719.167,119.667 719.167,120.333 720.5,121C 721.793,121.49 723.127,121.657 724.5,121.5C 724.5,122.5 724.5,123.5 724.5,124.5C 725.833,124.5 727.167,124.5 728.5,124.5C 728.5,125.5 728.5,126.5 728.5,127.5C 730.199,127.34 731.866,127.506 733.5,128C 732.167,128.667 732.167,129.333 733.5,130C 734.448,130.483 735.448,130.649 736.5,130.5C 736.5,131.5 736.5,132.5 736.5,133.5C 737.5,133.5 738.5,133.5 739.5,133.5C 739.5,134.5 739.5,135.5 739.5,136.5C 740.5,136.5 741.5,136.5 742.5,136.5C 742.5,137.5 742.5,138.5 742.5,139.5C 743.675,139.281 744.675,139.614 745.5,140.5C 746.095,143.975 747.429,146.975 749.5,149.5C 750.5,149.5 751.5,149.5 752.5,149.5C 754.323,152.163 755.323,155.163 755.5,158.5C 756.5,158.5 757.5,158.5 758.5,158.5C 758.491,160.308 758.991,161.975 760,163.5C 760.667,164.833 761.333,164.833 762,163.5C 762.743,165.441 762.576,167.274 761.5,169C 762.579,169.956 763.745,170.789 765,171.5C 765.499,175.152 765.665,178.818 765.5,182.5C 766.5,182.5 767.5,182.5 768.5,182.5C 768.5,186.833 768.5,191.167 768.5,195.5C 769.5,195.5 770.5,195.5 771.5,195.5C 771.5,208.5 771.5,221.5 771.5,234.5C 770.5,234.5 769.5,234.5 768.5,234.5C 768.5,238.833 768.5,243.167 768.5,247.5C 767.5,247.5 766.5,247.5 765.5,247.5C 765.665,251.182 765.499,254.848 765,258.5C 763.989,259.337 762.822,259.67 761.5,259.5C 762.878,262.377 762.212,264.877 759.5,267C 758.852,268.44 758.519,269.94 758.5,271.5C 757.5,271.5 756.5,271.5 755.5,271.5C 754.514,274.493 753.514,277.493 752.5,280.5C 751.5,280.5 750.5,280.5 749.5,280.5C 747.96,283.26 746.627,286.26 745.5,289.5C 744.675,290.386 743.675,290.719 742.5,290.5C 742.5,291.5 742.5,292.5 742.5,293.5C 741.5,293.5 740.5,293.5 739.5,293.5C 739.5,294.5 739.5,295.5 739.5,296.5C 738.5,296.5 737.5,296.5 736.5,296.5C 736.5,297.5 736.5,298.5 736.5,299.5C 735.448,299.351 734.448,299.517 733.5,300C 732.167,300.667 732.167,301.333 733.5,302C 731.833,302.333 730.167,302.667 728.5,303C 727.167,303.667 727.167,304.333 728.5,305C 727.167,305.333 725.833,305.667 724.5,306C 723.167,306.667 723.167,307.333 724.5,308C 721.339,309.01 718.339,310.343 715.5,312C 714.022,314.057 712.022,315.39 709.5,316C 709.833,316.333 710.167,316.667 710.5,317C 699.72,319.366 689.053,322.199 678.5,325.5C 660.042,328.583 642.042,327.083 624.5,321C 621.167,320.667 617.833,320.333 614.5,320C 614.833,319.667 615.167,319.333 615.5,319C 612.879,318.061 610.212,317.228 607.5,316.5C 605.362,315.256 603.362,313.756 601.5,312C 600.207,311.51 598.873,311.343 597.5,311.5C 597.5,310.5 597.5,309.5 597.5,308.5C 596.127,308.657 594.793,308.49 593.5,308C 594.833,307.333 594.833,306.667 593.5,306C 589.402,303.854 585.402,301.521 581.5,299C 582.833,298.333 582.833,297.667 581.5,297C 580.552,296.517 579.552,296.351 578.5,296.5C 578.5,295.5 578.5,294.5 578.5,293.5C 577.5,293.5 576.5,293.5 575.5,293.5C 575.5,292.5 575.5,291.5 575.5,290.5C 574.5,290.5 573.5,290.5 572.5,290.5C 572.556,287.439 571.222,285.272 568.5,284C 569.451,283.282 569.617,282.449 569,281.5C 565.227,279.059 562.56,275.726 561,271.5C 560.667,272.167 560.333,272.833 560,273.5C 559.506,271.866 559.34,270.199 559.5,268.5C 558.5,268.5 557.5,268.5 556.5,268.5C 556.5,265.5 556.5,262.5 556.5,259.5C 555.5,259.5 554.5,259.5 553.5,259.5C 553.665,255.818 553.499,252.152 553,248.5C 552.586,248.043 552.086,247.709 551.5,247.5C 548.482,229.94 547.815,212.273 549.5,194.5C 551.666,186.698 553,178.698 553.5,170.5C 554.5,170.5 555.5,170.5 556.5,170.5C 556.337,168.143 556.503,165.81 557,163.5C 557.914,164.654 558.747,164.487 559.5,163C 559.5,161.667 559.5,160.333 559.5,159C 560.448,158.517 561.448,158.351 562.5,158.5C 562.357,156.738 562.691,155.071 563.5,153.5C 565.92,151.422 567.92,149.088 569.5,146.5 Z M 1232.5,586.5 C 1231.55,585.081 1231.22,583.415 1231.5,581.5C 1230.45,581.649 1229.45,581.483 1228.5,581C 1228.83,580.667 1229.17,580.333 1229.5,580C 1228.38,578.956 1227.04,578.29 1225.5,578C 1225.83,577.667 1226.17,577.333 1226.5,577C 1223.86,574.88 1221.86,572.38 1220.5,569.5C 1219.13,569.657 1217.79,569.49 1216.5,569C 1216.96,568.586 1217.29,568.086 1217.5,567.5C 1215.92,566.702 1214.26,566.202 1212.5,566C 1212.96,565.586 1213.29,565.086 1213.5,564.5C 1211.58,563.692 1209.58,563.192 1207.5,563C 1207.96,562.586 1208.29,562.086 1208.5,561.5C 1206.58,560.692 1204.58,560.192 1202.5,560C 1198.99,557.855 1195.32,555.855 1191.5,554C 1181.82,553.35 1172.15,552.517 1162.5,551.5C 1152.52,552.56 1142.52,553.393 1132.5,554C 1129.34,555.664 1126.01,556.831 1122.5,557.5C 1121.61,558.325 1121.28,559.325 1121.5,560.5C 1119.08,560.192 1116.74,560.526 1114.5,561.5C 1114.71,562.086 1115.04,562.586 1115.5,563C 1113.1,563.186 1110.77,563.686 1108.5,564.5C 1108.71,565.086 1109.04,565.586 1109.5,566C 1107.5,566.333 1105.5,566.667 1103.5,567C 1102.17,567.667 1102.17,568.333 1103.5,569C 1099.61,569.762 1096.61,570.928 1094.5,572.5C 1094.5,573.5 1094.5,574.5 1094.5,575.5C 1093.17,575.5 1091.83,575.5 1090.5,575.5C 1090.5,576.5 1090.5,577.5 1090.5,578.5C 1089.45,578.351 1088.45,578.517 1087.5,579C 1085.02,582.085 1081.85,585.252 1078,588.5C 1074.21,592.782 1071.04,597.449 1068.5,602.5C 1067.5,602.5 1066.5,602.5 1065.5,602.5C 1065.66,604.527 1065.5,606.527 1065,608.5C 1063.22,610.211 1062.06,612.211 1061.5,614.5C 1060.17,615.83 1059.33,617.497 1059,619.5C 1058.67,619.167 1058.33,618.833 1058,618.5C 1057.08,621.101 1056.41,623.768 1056,626.5C 1054.98,625.366 1054.32,625.699 1054,627.5C 1053.5,629.473 1053.34,631.473 1053.5,633.5C 1052.5,633.5 1051.5,633.5 1050.5,633.5C 1050.66,636.187 1050.5,638.854 1050,641.5C 1049.68,639.699 1049.02,639.366 1048,640.5C 1047.67,643.5 1047.33,646.5 1047,649.5C 1046.33,648.167 1045.67,648.167 1045,649.5C 1044.83,655.196 1044.33,660.862 1043.5,666.5C 1042.91,666.709 1042.41,667.043 1042,667.5C 1041.67,795.833 1041.33,924.167 1041,1052.5C 1039.75,1053.21 1038.58,1054.04 1037.5,1055C 1037.81,1056.68 1038.14,1058.35 1038.5,1060C 1036.91,1064.09 1035.58,1068.25 1034.5,1072.5C 1033.5,1072.5 1032.5,1072.5 1031.5,1072.5C 1031.5,1074.5 1031.5,1076.5 1031.5,1078.5C 1030.5,1078.5 1029.5,1078.5 1028.5,1078.5C 1028.5,1079.5 1028.5,1080.5 1028.5,1081.5C 1026.09,1082.77 1023.76,1083.94 1021.5,1085C 1020.17,1085.67 1020.17,1086.33 1021.5,1087C 1019.87,1087.49 1018.2,1087.66 1016.5,1087.5C 1016.5,1088.5 1016.5,1089.5 1016.5,1090.5C 1015.17,1090.5 1013.83,1090.5 1012.5,1090.5C 1012.5,1091.5 1012.5,1092.5 1012.5,1093.5C 989.382,1094.75 966.216,1095.41 943,1095.5C 919.784,1095.41 896.618,1094.75 873.5,1093.5C 873.5,1092.5 873.5,1091.5 873.5,1090.5C 870.644,1089.17 867.644,1088.17 864.5,1087.5C 864.5,1086.5 864.5,1085.5 864.5,1084.5C 863.167,1084.5 861.833,1084.5 860.5,1084.5C 860.5,1083.5 860.5,1082.5 860.5,1081.5C 859.5,1081.5 858.5,1081.5 857.5,1081.5C 857.5,1080.5 857.5,1079.5 857.5,1078.5C 856.5,1078.5 855.5,1078.5 854.5,1078.5C 854.481,1076.94 854.148,1075.44 853.5,1074C 852.616,1072.9 851.616,1072.4 850.5,1072.5C 851.48,1070.39 851.146,1068.39 849.5,1066.5C 848.914,1066.71 848.414,1067.04 848,1067.5C 847.828,1062.8 847.328,1058.13 846.5,1053.5C 845.914,1053.71 845.414,1054.04 845,1054.5C 844.333,846.5 844.333,638.5 845,430.5C 845.414,430.957 845.914,431.291 846.5,431.5C 847.328,427.204 847.828,422.871 848,418.5C 848.667,419.833 849.333,419.833 850,418.5C 851.217,416.48 851.383,414.48 850.5,412.5C 850.938,411.494 851.604,411.494 852.5,412.5C 853.768,410.696 854.435,408.696 854.5,406.5C 855.5,406.5 856.5,406.5 857.5,406.5C 857.5,405.5 857.5,404.5 857.5,403.5C 858.5,403.5 859.5,403.5 860.5,403.5C 860.5,402.5 860.5,401.5 860.5,400.5C 861.833,400.5 863.167,400.5 864.5,400.5C 864.5,399.5 864.5,398.5 864.5,397.5C 867.644,396.828 870.644,395.828 873.5,394.5C 873.5,393.5 873.5,392.5 873.5,391.5C 877.967,391.867 882.3,391.367 886.5,390C 886.167,389.667 885.833,389.333 885.5,389C 923.833,388.333 962.167,388.333 1000.5,389C 999.167,389.667 999.167,390.333 1000.5,391C 1004.49,391.499 1008.49,391.666 1012.5,391.5C 1012.5,392.5 1012.5,393.5 1012.5,394.5C 1013.83,394.5 1015.17,394.5 1016.5,394.5C 1016.5,395.5 1016.5,396.5 1016.5,397.5C 1018.2,397.34 1019.87,397.506 1021.5,398C 1020.17,398.667 1020.17,399.333 1021.5,400C 1023.76,401.06 1026.09,402.226 1028.5,403.5C 1028.5,404.5 1028.5,405.5 1028.5,406.5C 1029.5,406.5 1030.5,406.5 1031.5,406.5C 1031.5,408.5 1031.5,410.5 1031.5,412.5C 1032.5,412.5 1033.5,412.5 1034.5,412.5C 1033.85,416.56 1035.51,418.56 1039.5,418.5C 1039.5,417.5 1039.5,416.5 1039.5,415.5C 1040.83,415.5 1042.17,415.5 1043.5,415.5C 1043.5,414.5 1043.5,413.5 1043.5,412.5C 1045.2,412.66 1046.87,412.494 1048.5,412C 1049.83,411.333 1049.83,410.667 1048.5,410C 1052.6,408.899 1055.93,407.566 1058.5,406C 1059.83,405.333 1059.83,404.667 1058.5,404C 1060.47,403.505 1062.47,403.338 1064.5,403.5C 1064.5,402.5 1064.5,401.5 1064.5,400.5C 1066.2,400.66 1067.87,400.494 1069.5,400C 1072.05,398.213 1074.72,396.713 1077.5,395.5C 1079.77,394.686 1082.1,394.186 1084.5,394C 1085.83,393.333 1085.83,392.667 1084.5,392C 1087.62,391.794 1090.62,391.127 1093.5,390C 1093.17,389.667 1092.83,389.333 1092.5,389C 1099.03,387.434 1105.7,386.1 1112.5,385C 1114.3,384.683 1114.63,384.016 1113.5,383C 1127.08,380.429 1140.75,378.095 1154.5,376C 1156.71,374.727 1159.05,373.727 1161.5,373C 1184.5,372.333 1207.5,372.333 1230.5,373C 1232.95,373.727 1235.29,374.727 1237.5,376C 1250.96,377.993 1264.3,380.493 1277.5,383.5C 1277.71,384.086 1278.04,384.586 1278.5,385C 1282.29,384.908 1285.63,385.908 1288.5,388C 1291.5,388.333 1294.5,388.667 1297.5,389C 1296.17,389.667 1296.17,390.333 1297.5,391C 1300.97,390.943 1303.97,391.943 1306.5,394C 1308.47,394.495 1310.47,394.662 1312.5,394.5C 1312.5,395.5 1312.5,396.5 1312.5,397.5C 1314.5,397.5 1316.5,397.5 1318.5,397.5C 1318.5,398.5 1318.5,399.5 1318.5,400.5C 1320.5,400.5 1322.5,400.5 1324.5,400.5C 1324.5,401.5 1324.5,402.5 1324.5,403.5C 1326.2,403.34 1327.87,403.506 1329.5,404C 1328.17,404.667 1328.17,405.333 1329.5,406C 1331.17,406.333 1332.83,406.667 1334.5,407C 1334.17,407.333 1333.83,407.667 1333.5,408C 1335.29,409.163 1337.29,409.83 1339.5,410C 1338.17,410.667 1338.17,411.333 1339.5,412C 1340.79,412.49 1342.13,412.657 1343.5,412.5C 1343.5,413.5 1343.5,414.5 1343.5,415.5C 1344.83,415.5 1346.17,415.5 1347.5,415.5C 1347.5,416.5 1347.5,417.5 1347.5,418.5C 1352.34,420.442 1356.34,423.608 1359.5,428C 1361.59,429.726 1363.92,430.893 1366.5,431.5C 1366.5,432.5 1366.5,433.5 1366.5,434.5C 1367.68,434.281 1368.68,434.614 1369.5,435.5C 1371.3,436.695 1372.3,438.362 1372.5,440.5C 1373.5,440.5 1374.5,440.5 1375.5,440.5C 1375.5,441.5 1375.5,442.5 1375.5,443.5C 1376.5,443.5 1377.5,443.5 1378.5,443.5C 1378.5,444.5 1378.5,445.5 1378.5,446.5C 1379.55,446.351 1380.55,446.517 1381.5,447C 1381.17,447.333 1380.83,447.667 1380.5,448C 1382.83,449.667 1385.17,451.333 1387.5,453C 1386.45,454.716 1387.11,455.716 1389.5,456C 1389.17,456.333 1388.83,456.667 1388.5,457C 1390.04,458.11 1390.7,459.61 1390.5,461.5C 1391.5,461.5 1392.5,461.5 1393.5,461.5C 1395.87,465.594 1397.87,469.927 1399.5,474.5C 1400.5,474.5 1401.5,474.5 1402.5,474.5C 1402.83,477.004 1404.16,478.838 1406.5,480C 1405.66,481.011 1405.33,482.178 1405.5,483.5C 1406.5,483.5 1407.5,483.5 1408.5,483.5C 1408.5,485.842 1409.34,487.842 1411,489.5C 1411.33,488.833 1411.67,488.167 1412,487.5C 1412.68,488.784 1412.52,489.951 1411.5,491C 1412.7,491.903 1413.53,493.069 1414,494.5C 1414.33,494.167 1414.67,493.833 1415,493.5C 1415.13,496.003 1416.13,498.003 1418,499.5C 1418.41,502.232 1419.08,504.899 1420,507.5C 1420.33,507.167 1420.67,506.833 1421,506.5C 1421.5,509.146 1421.66,511.813 1421.5,514.5C 1422.5,514.5 1423.5,514.5 1424.5,514.5C 1424.5,516.5 1424.5,518.5 1424.5,520.5C 1425.5,520.5 1426.5,520.5 1427.5,520.5C 1427.5,523.5 1427.5,526.5 1427.5,529.5C 1428.5,529.5 1429.5,529.5 1430.5,529.5C 1430.5,532.5 1430.5,535.5 1430.5,538.5C 1431.5,538.5 1432.5,538.5 1433.5,538.5C 1435.5,550.833 1437.5,563.167 1439.5,575.5C 1440.5,575.5 1441.5,575.5 1442.5,575.5C 1442.33,579.514 1442.5,583.514 1443,587.5C 1444.83,594.785 1446.33,602.118 1447.5,609.5C 1448.17,618.167 1448.83,626.833 1449.5,635.5C 1450.83,774.833 1450.83,914.167 1449.5,1053.5C 1448.67,1057.46 1448.17,1061.46 1448,1065.5C 1445.9,1067.3 1445.06,1069.64 1445.5,1072.5C 1444.5,1072.5 1443.5,1072.5 1442.5,1072.5C 1441.12,1075.56 1440.12,1078.56 1439.5,1081.5C 1438.45,1081.35 1437.45,1081.52 1436.5,1082C 1435.17,1082.67 1435.17,1083.33 1436.5,1084C 1432.13,1086.19 1427.8,1088.35 1423.5,1090.5C 1423.5,1091.5 1423.5,1092.5 1423.5,1093.5C 1400.38,1094.75 1377.22,1095.41 1354,1095.5C 1330.78,1095.41 1307.62,1094.75 1284.5,1093.5C 1284.5,1092.5 1284.5,1091.5 1284.5,1090.5C 1282.83,1090.5 1281.17,1090.5 1279.5,1090.5C 1279.5,1089.5 1279.5,1088.5 1279.5,1087.5C 1276.68,1086.78 1274.01,1085.78 1271.5,1084.5C 1271.5,1083.5 1271.5,1082.5 1271.5,1081.5C 1270.5,1081.5 1269.5,1081.5 1268.5,1081.5C 1268.5,1080.5 1268.5,1079.5 1268.5,1078.5C 1267.5,1078.5 1266.5,1078.5 1265.5,1078.5C 1265.17,1076.5 1264.83,1074.5 1264.5,1072.5C 1262.06,1072.88 1261.39,1072.21 1262.5,1070.5C 1261.48,1069.65 1260.64,1068.65 1260,1067.5C 1259.67,1067.83 1259.33,1068.17 1259,1068.5C 1258.67,1063.83 1258.33,1059.17 1258,1054.5C 1256.98,1053.37 1256.32,1053.7 1256,1055.5C 1255.67,924.167 1255.33,792.833 1255,661.5C 1253.98,660.366 1253.32,660.699 1253,662.5C 1252.67,653.833 1252.33,645.167 1252,636.5C 1251.33,633.833 1250.67,633.833 1250,636.5C 1249.5,631.511 1249.33,626.511 1249.5,621.5C 1248.5,621.5 1247.5,621.5 1246.5,621.5C 1246.82,618.428 1246.48,615.428 1245.5,612.5C 1241.8,605.595 1238.64,598.261 1236,590.5C 1235.67,590.833 1235.33,591.167 1235,591.5C 1234.67,589.497 1233.83,587.83 1232.5,586.5 Z M 600.5,389.5 C 638.335,388.17 676.335,388.17 714.5,389.5C 714.709,390.086 715.043,390.586 715.5,391C 719.5,391.333 723.5,391.667 727.5,392C 727.167,392.333 726.833,392.667 726.5,393C 727.949,394.117 729.616,394.784 731.5,395C 730.167,395.667 730.167,396.333 731.5,397C 735.497,399.268 739.497,401.435 743.5,403.5C 743.5,404.5 743.5,405.5 743.5,406.5C 744.552,406.351 745.552,406.517 746.5,407C 746.146,408.626 746.146,410.459 746.5,412.5C 747.5,412.5 748.5,412.5 749.5,412.5C 751.658,418.458 752.658,424.791 752.5,431.5C 753.5,431.5 754.5,431.5 755.5,431.5C 755.5,638.833 755.5,846.167 755.5,1053.5C 754.5,1053.5 753.5,1053.5 752.5,1053.5C 752.666,1057.51 752.499,1061.51 752,1065.5C 749.863,1067.32 749.03,1069.65 749.5,1072.5C 748.5,1072.5 747.5,1072.5 746.5,1072.5C 746.146,1074.54 746.146,1076.37 746.5,1078C 745.552,1078.48 744.552,1078.65 743.5,1078.5C 743.5,1079.5 743.5,1080.5 743.5,1081.5C 739.497,1083.56 735.497,1085.73 731.5,1088C 730.167,1088.67 730.167,1089.33 731.5,1090C 729.616,1090.22 727.949,1090.88 726.5,1092C 726.833,1092.33 727.167,1092.67 727.5,1093C 724.447,1093.18 721.447,1093.68 718.5,1094.5C 677.833,1095.83 637.167,1095.83 596.5,1094.5C 591.855,1093.6 587.522,1092.26 583.5,1090.5C 583.5,1089.5 583.5,1088.5 583.5,1087.5C 580.509,1086.9 577.843,1085.57 575.5,1083.5C 573.703,1082.3 572.703,1080.64 572.5,1078.5C 571.5,1078.5 570.5,1078.5 569.5,1078.5C 569.64,1076.88 568.973,1075.71 567.5,1075C 568.609,1073.19 567.942,1072.35 565.5,1072.5C 565.778,1070.65 565.111,1069.32 563.5,1068.5C 562.672,1063.87 562.172,1059.2 562,1054.5C 560.984,1053.37 560.317,1053.7 560,1055.5C 559.333,846.833 559.333,638.167 560,429.5C 560.317,431.301 560.984,431.634 562,430.5C 562.499,425.845 562.666,421.179 562.5,416.5C 563.5,416.5 564.5,416.5 565.5,416.5C 565.5,415.167 565.5,413.833 565.5,412.5C 567.942,412.646 568.609,411.813 567.5,410C 568.973,409.29 569.64,408.124 569.5,406.5C 570.5,406.5 571.5,406.5 572.5,406.5C 572.561,404.408 573.561,402.908 575.5,402C 575.167,401.667 574.833,401.333 574.5,401C 575.833,400.667 577.167,400.333 578.5,400C 579.833,399.333 579.833,398.667 578.5,398C 580.134,397.506 581.801,397.34 583.5,397.5C 583.5,396.5 583.5,395.5 583.5,394.5C 585.167,394.5 586.833,394.5 588.5,394.5C 588.5,393.5 588.5,392.5 588.5,391.5C 592.967,391.867 597.3,391.367 601.5,390C 601.272,389.601 600.938,389.435 600.5,389.5 Z"/></g>
</svg>
