<?xml version="1.0" encoding="UTF-8"?>
<!DOCTYPE svg PUBLIC "-//W3C//DTD SVG 1.1//EN" "http://www.w3.org/Graphics/SVG/1.1/DTD/svg11.dtd">
<svg xmlns="http://www.w3.org/2000/svg" version="1.1" width="4000px" height="4000px" style="shape-rendering:geometricPrecision; text-rendering:geometricPrecision; image-rendering:optimizeQuality; fill-rule:evenodd; clip-rule:evenodd" xmlns:xlink="http://www.w3.org/1999/xlink">
<g><path style="opacity:0.989" fill="#000000" d="M 1936.5,-0.5 C 1977.83,-0.5 2019.17,-0.5 2060.5,-0.5C 2509.68,16.457 2908.68,164.624 3257.5,444C 3540.73,675.84 3746.89,963.34 3876,1306.5C 3982.58,1597.48 4019.42,1898.65 3986.5,2210C 3954.22,2525.71 3850.72,2818.54 3676,3088.5C 3464.9,3408.61 3186.07,3650.44 2839.5,3814C 2553.07,3945.95 2252.07,4006.95 1936.5,3997C 1520.2,3982.36 1144.87,3852.69 810.5,3608C 557.18,3418.73 358.347,3183.9 214,2903.5C 79.3548,2635.88 7.85478,2354.88 -0.5,2060.5C -0.5,2019.17 -0.5,1977.83 -0.5,1936.5C 12.914,1532.78 137.414,1164.78 373,832.5C 586.668,538.486 859.168,316.986 1190.5,168C 1428.28,63.5551 1676.94,7.38842 1936.5,-0.5 Z"/></g>
<g><path style="opacity:1" fill="#b0b0b0" d="M 1965.5,99.5 C 2125.12,97.1063 2282.79,113.273 2438.5,148C 2705.96,215.244 2948.29,332.244 3165.5,499C 3316.1,618.589 3446.94,756.423 3558,912.5C 3695.8,1113.82 3793.8,1333.49 3852,1571.5C 3911.89,1852.74 3912.55,2134.07 3854,2415.5C 3794.68,2665.74 3691.35,2895.41 3544,3104.5C 3263.12,3486.4 2891.62,3735.23 2429.5,3851C 2143.58,3912.58 1857.58,3912.92 1571.5,3852C 1298.97,3785.72 1052.31,3667.72 831.5,3498C 498.224,3233.55 274.39,2895.39 160,2483.5C 121.573,2334.67 101.573,2183.34 100,2029.5C 97.4222,1871.98 113.089,1716.31 147,1562.5C 264.412,1099.4 515.246,727.904 899.5,448C 1104.05,305.421 1328.05,204.421 1571.5,145C 1701.5,117.14 1832.83,101.973 1965.5,99.5 Z"/></g>
<g><path style="opacity:1" fill="#382b1e" d="M 1272.5,989.5 C 1278.87,989.347 1285.2,989.68 1291.5,990.5C 1294.89,992.278 1298.39,993.945 1302,995.5C 1308.36,992.906 1314.86,990.739 1321.5,989C 1363.97,984.908 1406.47,981.074 1449,977.5C 1457.91,976.289 1466.08,978.122 1473.5,983C 1497.83,983.333 1522.17,983.667 1546.5,984C 1550.26,985.417 1553.93,986.917 1557.5,988.5C 1576,989.332 1594.66,989.832 1613.5,990C 1617.17,990.548 1620.84,991.048 1624.5,991.5C 1639.49,995.158 1652.16,1002.66 1662.5,1014C 1663.74,1014.79 1665.08,1015.29 1666.5,1015.5C 1676.64,1016.86 1686.97,1017.53 1697.5,1017.5C 1710.84,1018.11 1724.18,1018.94 1737.5,1020C 1749.26,1021.81 1759.93,1026.14 1769.5,1033C 1779.47,1044.82 1782.31,1058.32 1778,1073.5C 1776.15,1078.71 1773.65,1083.54 1770.5,1088C 1780.32,1100.49 1781.15,1113.66 1773,1127.5C 1764.71,1138.13 1754.88,1146.96 1743.5,1154C 1728.52,1159.06 1713.19,1162.73 1697.5,1165C 1714.45,1166.89 1731.45,1168.22 1748.5,1169C 1772.62,1173.09 1781.78,1186.93 1776,1210.5C 1771.75,1219.08 1765.25,1225.25 1756.5,1229C 1775.33,1237.15 1781.83,1250.98 1776,1270.5C 1770.07,1282.72 1760.24,1288.72 1746.5,1288.5C 1732.56,1285.81 1718.56,1283.31 1704.5,1281C 1659.18,1277.38 1613.85,1274.05 1568.5,1271C 1559.22,1269.36 1551.88,1264.69 1546.5,1257C 1536.07,1256.8 1525.74,1257.8 1515.5,1260C 1490.6,1265.51 1465.6,1270.51 1440.5,1275C 1426.48,1278.38 1414.64,1274.88 1405,1264.5C 1402.06,1260.63 1400.23,1256.29 1399.5,1251.5C 1381.85,1255.98 1364.19,1260.48 1346.5,1265C 1333.1,1267.04 1319.77,1269.37 1306.5,1272C 1278.61,1280.41 1250.61,1288.41 1222.5,1296C 1212.25,1298.11 1201.92,1298.78 1191.5,1298C 1183.52,1296.01 1177.19,1291.68 1172.5,1285C 1171.33,1284.83 1170.17,1284.67 1169,1284.5C 1126.11,1293.08 1083.28,1301.91 1040.5,1311C 1010.55,1315.66 980.55,1319.99 950.5,1324C 916.013,1342.41 882.346,1362.07 849.5,1383C 816.82,1405.66 786.486,1431.33 758.5,1460C 748.539,1467.41 737.539,1469.41 725.5,1466C 718.924,1462.26 713.924,1457.09 710.5,1450.5C 710.326,1448.14 709.993,1445.81 709.5,1443.5C 704.833,1443.5 700.167,1443.5 695.5,1443.5C 691.366,1442.52 687.532,1440.85 684,1438.5C 678.234,1441.93 672.734,1445.76 667.5,1450C 663.119,1452.7 658.452,1454.53 653.5,1455.5C 647.677,1455.88 642.011,1455.21 636.5,1453.5C 632.289,1451.47 628.455,1448.8 625,1445.5C 621.866,1440.23 619.033,1434.89 616.5,1429.5C 610.181,1435.32 604.014,1441.32 598,1447.5C 594.486,1457.09 589.32,1465.59 582.5,1473C 567.017,1482.93 552.85,1481.43 540,1468.5C 532.162,1456.6 531.496,1444.27 538,1431.5C 545.978,1415.87 555.144,1401.04 565.5,1387C 562.821,1387.22 560.155,1387.89 557.5,1389C 548.666,1390.81 540.666,1389.14 533.5,1384C 531.316,1381.98 529.316,1379.82 527.5,1377.5C 519.62,1391.61 507.62,1397.44 491.5,1395C 478.701,1390.24 471.535,1381.07 470,1367.5C 468.339,1347.12 470.339,1327.12 476,1307.5C 477.584,1302.73 479.917,1298.4 483,1294.5C 500.667,1276.83 518.333,1259.17 536,1241.5C 535.84,1237.16 535.34,1232.83 534.5,1228.5C 532.097,1228.39 530.264,1229.39 529,1231.5C 518.978,1250.81 503.811,1256.31 483.5,1248C 479.555,1244.56 476.222,1240.73 473.5,1236.5C 470.964,1230.09 469.964,1223.43 470.5,1216.5C 475.27,1193.9 488.27,1178.06 509.5,1169C 535.501,1156.56 562.501,1146.89 590.5,1140C 594.945,1137.44 599.611,1135.44 604.5,1134C 628.037,1127.62 651.704,1121.62 675.5,1116C 682.833,1115.67 690.167,1115.33 697.5,1115C 703.147,1113.69 706.313,1110.19 707,1104.5C 712.654,1096.19 720.154,1090.02 729.5,1086C 754.5,1078.93 779.833,1073.27 805.5,1069C 808.694,1061.14 814.027,1055.14 821.5,1051C 848.585,1041.31 876.251,1033.65 904.5,1028C 962.937,1016.18 1021.27,1003.85 1079.5,991C 1109.41,986.024 1139.41,981.69 1169.5,978C 1185.66,974.103 1199.49,977.936 1211,989.5C 1212.48,992.11 1213.65,994.777 1214.5,997.5C 1233.78,994.534 1253.12,991.868 1272.5,989.5 Z"/></g>
<g><path style="opacity:1" fill="#382b1e" d="M 2652.5,987.5 C 2661.96,988.947 2671.63,989.613 2681.5,989.5C 2687.2,991.568 2693.03,993.568 2699,995.5C 2702.32,992.684 2706.16,991.017 2710.5,990.5C 2715.46,989.746 2720.46,989.413 2725.5,989.5C 2745.84,992.167 2766.17,994.834 2786.5,997.5C 2790.09,987.417 2797.09,980.917 2807.5,978C 2814.5,977.333 2821.5,977.333 2828.5,978C 2858.54,982.053 2888.54,986.387 2918.5,991C 2982.04,1004.87 3045.7,1018.2 3109.5,1031C 3125.12,1035.16 3140.79,1039.16 3156.5,1043C 3169.01,1046 3180.17,1051.5 3190,1059.5C 3192.32,1062.48 3193.82,1065.81 3194.5,1069.5C 3219.84,1073.44 3244.84,1078.94 3269.5,1086C 3282.23,1090.07 3291.07,1098.24 3296,1110.5C 3298.25,1112.38 3300.75,1113.88 3303.5,1115C 3311.88,1115.17 3320.22,1115.84 3328.5,1117C 3350.51,1122.67 3372.51,1128.34 3394.5,1134C 3414.35,1141.06 3434.35,1147.73 3454.5,1154C 3473.28,1160.72 3491.28,1169.06 3508.5,1179C 3523.25,1192.28 3530.42,1208.78 3530,1228.5C 3527.63,1238.69 3521.79,1246.03 3512.5,1250.5C 3506.54,1251.31 3500.54,1251.64 3494.5,1251.5C 3483.77,1248.61 3476.27,1241.94 3472,1231.5C 3470.74,1229.39 3468.9,1228.39 3466.5,1228.5C 3465.66,1232.83 3465.16,1237.16 3465,1241.5C 3482.67,1259.17 3500.33,1276.83 3518,1294.5C 3520.59,1298.67 3522.92,1303.01 3525,1307.5C 3531.8,1330.55 3533.13,1353.88 3529,1377.5C 3519.17,1394.84 3505.01,1399.67 3486.5,1392C 3480.93,1388.26 3476.59,1383.43 3473.5,1377.5C 3462.98,1389.4 3450.32,1392.56 3435.5,1387C 3445.86,1401.04 3455.02,1415.87 3463,1431.5C 3469.5,1444.27 3468.84,1456.6 3461,1468.5C 3448.48,1480.88 3434.64,1482.71 3419.5,1474C 3411.86,1466.56 3406.36,1457.73 3403,1447.5C 3397.17,1441.67 3391.33,1435.83 3385.5,1430C 3384.55,1429.52 3383.55,1429.35 3382.5,1429.5C 3380.11,1444.39 3371.45,1453.22 3356.5,1456C 3351.76,1456.73 3347.09,1456.39 3342.5,1455C 3333.72,1449.88 3325.22,1444.38 3317,1438.5C 3312.66,1440.67 3308.16,1442.34 3303.5,1443.5C 3299.5,1443.5 3295.5,1443.5 3291.5,1443.5C 3291.01,1445.81 3290.67,1448.14 3290.5,1450.5C 3283.04,1463.51 3271.71,1469.01 3256.5,1467C 3253.01,1466.06 3249.67,1464.72 3246.5,1463C 3206.34,1422.78 3162,1388.11 3113.5,1359C 3092.34,1347.59 3071.34,1335.92 3050.5,1324C 3021.36,1320.9 2992.36,1316.9 2963.5,1312C 2918.58,1302.22 2873.58,1293.22 2828.5,1285C 2820.79,1294.77 2810.62,1299.27 2798,1298.5C 2792.14,1298.29 2786.31,1297.79 2780.5,1297C 2750.06,1288.71 2719.73,1280.05 2689.5,1271C 2659.64,1266.7 2630.3,1260.2 2601.5,1251.5C 2598.68,1264.48 2590.68,1272.32 2577.5,1275C 2570.5,1275.67 2563.5,1275.67 2556.5,1275C 2530.4,1270.18 2504.4,1264.85 2478.5,1259C 2471.18,1258.02 2463.85,1257.19 2456.5,1256.5C 2452.68,1260.48 2448.34,1263.98 2443.5,1267C 2438.95,1268.74 2434.28,1270.07 2429.5,1271C 2381.44,1273.8 2333.44,1277.47 2285.5,1282C 2272.42,1285.96 2259.09,1287.96 2245.5,1288C 2227.93,1281.71 2220.43,1269.21 2223,1250.5C 2226.87,1239.63 2234.37,1232.47 2245.5,1229C 2225.18,1220.19 2218.68,1205.35 2226,1184.5C 2231.05,1175.79 2238.55,1170.62 2248.5,1169C 2266.49,1167.52 2284.49,1166.19 2302.5,1165C 2287.53,1162.92 2272.86,1159.59 2258.5,1155C 2243.53,1146.57 2232.03,1134.74 2224,1119.5C 2220.69,1107.72 2222.86,1097.22 2230.5,1088C 2221.26,1074.28 2219.09,1059.45 2224,1043.5C 2228.71,1033.79 2236.21,1027.29 2246.5,1024C 2253.46,1022.18 2260.46,1020.51 2267.5,1019C 2289.16,1017.79 2310.82,1016.79 2332.5,1016C 2334.61,1015.64 2336.61,1014.97 2338.5,1014C 2350.51,1000.49 2365.51,992.492 2383.5,990C 2403.5,989.667 2423.5,989.333 2443.5,989C 2446.34,987.08 2449.34,985.413 2452.5,984C 2477.5,983.667 2502.5,983.333 2527.5,983C 2533.56,978.096 2540.56,976.263 2548.5,977.5C 2583.28,979.735 2617.95,983.069 2652.5,987.5 Z"/></g>
<g><path style="opacity:1" fill="#8b8783" d="M 2652.5,987.5 C 2662.37,987.387 2672.04,988.053 2681.5,989.5C 2671.63,989.613 2661.96,988.947 2652.5,987.5 Z"/></g>
<g><path style="opacity:1" fill="#8a8682" d="M 1557.5,988.5 C 1576.5,988.333 1595.5,988.5 1614.5,989C 1618.18,989.026 1621.51,989.86 1624.5,991.5C 1620.84,991.048 1617.17,990.548 1613.5,990C 1594.66,989.832 1576,989.332 1557.5,988.5 Z"/></g>
<g><path style="opacity:1" fill="#6c655d" d="M 2725.5,989.5 C 2720.46,989.413 2715.46,989.746 2710.5,990.5C 2713.19,989.009 2716.19,988.343 2719.5,988.5C 2721.7,988.505 2723.7,988.838 2725.5,989.5 Z"/></g>
<g><path style="opacity:1" fill="#7d7772" d="M 1272.5,989.5 C 1274.98,988.836 1277.64,988.503 1280.5,988.5C 1284.47,988.294 1288.14,988.961 1291.5,990.5C 1285.2,989.68 1278.87,989.347 1272.5,989.5 Z"/></g>
<g><path style="opacity:1" fill="#807a75" d="M 1666.5,1015.5 C 1677.04,1015.32 1687.37,1015.99 1697.5,1017.5C 1686.97,1017.53 1676.64,1016.86 1666.5,1015.5 Z"/></g>
<g><path style="opacity:1" fill="#7f7a75" d="M 470.5,1216.5 C 469.964,1223.43 470.964,1230.09 473.5,1236.5C 471.689,1234.61 470.522,1232.28 470,1229.5C 469.186,1224.98 469.353,1220.65 470.5,1216.5 Z"/></g>
<g><path style="opacity:1" fill="#817b76" d="M 3512.5,1250.5 C 3509.3,1252.03 3505.8,1252.7 3502,1252.5C 3499.31,1252.5 3496.81,1252.16 3494.5,1251.5C 3500.54,1251.64 3506.54,1251.31 3512.5,1250.5 Z"/></g>
<g><path style="opacity:1" fill="#6b635c" d="M 695.5,1443.5 C 700.167,1443.5 704.833,1443.5 709.5,1443.5C 709.993,1445.81 710.326,1448.14 710.5,1450.5C 709.262,1448.79 708.595,1446.79 708.5,1444.5C 703.968,1444.82 699.634,1444.48 695.5,1443.5 Z"/></g>
<g><path style="opacity:1" fill="#69625a" d="M 3303.5,1443.5 C 3300.04,1444.48 3296.37,1444.81 3292.5,1444.5C 3292.41,1446.79 3291.74,1448.79 3290.5,1450.5C 3290.67,1448.14 3291.01,1445.81 3291.5,1443.5C 3295.5,1443.5 3299.5,1443.5 3303.5,1443.5 Z"/></g>
<g><path style="opacity:1" fill="#7d7771" d="M 636.5,1453.5 C 642.011,1455.21 647.677,1455.88 653.5,1455.5C 649.354,1456.65 645.02,1456.81 640.5,1456C 638.68,1455.8 637.347,1454.97 636.5,1453.5 Z"/></g>
<g><path style="opacity:1" fill="#382b1e" d="M 1388.5,1503.5 C 1424.46,1550.29 1426.96,1598.96 1396,1649.5C 1390.34,1657.32 1383.84,1664.32 1376.5,1670.5C 1375.12,1671.8 1373.45,1672.63 1371.5,1673C 1323.15,1675.23 1274.81,1674.9 1226.5,1672C 1225.96,1671.28 1225.29,1670.78 1224.5,1670.5C 1194.39,1642.92 1180.89,1608.58 1184,1567.5C 1187.25,1543.53 1196.75,1522.53 1212.5,1504.5C 1213.29,1504.22 1213.96,1503.72 1214.5,1503C 1271.47,1498.75 1328.47,1498.41 1385.5,1502C 1386.53,1502.51 1387.53,1503.01 1388.5,1503.5 Z"/></g>
<g><path style="opacity:1" fill="#382b1e" d="M 2787.5,1505.5 C 2816.99,1542.48 2823.16,1583.15 2806,1627.5C 2799.07,1643.92 2788.9,1657.92 2775.5,1669.5C 2773.89,1671.27 2771.89,1672.44 2769.5,1673C 2721.16,1675.07 2672.82,1674.9 2624.5,1672.5C 2593.05,1644.7 2578.89,1609.7 2582,1567.5C 2585.23,1542.38 2595.4,1520.72 2612.5,1502.5C 2669.49,1498.75 2726.49,1498.58 2783.5,1502C 2784.95,1503.1 2786.28,1504.27 2787.5,1505.5 Z"/></g>
<g><path style="opacity:1" fill="#fefefe" d="M 1388.5,1503.5 C 1444.66,1506.37 1499.32,1516.87 1552.5,1535C 1567.38,1540.77 1581.38,1548.11 1594.5,1557C 1618.45,1576.97 1618.45,1596.97 1594.5,1617C 1578.95,1627.44 1562.28,1635.78 1544.5,1642C 1489.7,1659.63 1433.7,1669.13 1376.5,1670.5C 1383.84,1664.32 1390.34,1657.32 1396,1649.5C 1426.96,1598.96 1424.46,1550.29 1388.5,1503.5 Z"/></g>
<g><path style="opacity:1" fill="#fefefe" d="M 2612.5,1502.5 C 2595.4,1520.72 2585.23,1542.38 2582,1567.5C 2578.89,1609.7 2593.05,1644.7 2624.5,1672.5C 2567.22,1669.68 2511.22,1659.84 2456.5,1643C 2437.94,1636.6 2420.61,1627.94 2404.5,1617C 2380.96,1597.62 2380.63,1577.95 2403.5,1558C 2426.65,1542.05 2451.98,1530.72 2479.5,1524C 2523.13,1512.51 2567.46,1505.34 2612.5,1502.5 Z"/></g>
<g><path style="opacity:1" fill="#fefefe" d="M 1212.5,1504.5 C 1196.75,1522.53 1187.25,1543.53 1184,1567.5C 1180.89,1608.58 1194.39,1642.92 1224.5,1670.5C 1171.78,1668.25 1120.11,1659.08 1069.5,1643C 1050.94,1636.6 1033.61,1627.94 1017.5,1617C 993.964,1597.62 993.631,1577.95 1016.5,1558C 1039.65,1542.05 1064.98,1530.72 1092.5,1524C 1132.02,1513.25 1172.02,1506.75 1212.5,1504.5 Z"/></g>
<g><path style="opacity:1" fill="#fefefe" d="M 2775.5,1669.5 C 2788.9,1657.92 2799.07,1643.92 2806,1627.5C 2823.16,1583.15 2816.99,1542.48 2787.5,1505.5C 2839.43,1507.76 2890.1,1517.6 2939.5,1535C 2954.38,1540.77 2968.38,1548.11 2981.5,1557C 3005.45,1576.97 3005.45,1596.97 2981.5,1617C 2965.95,1627.44 2949.28,1635.78 2931.5,1642C 2880.63,1658.64 2828.63,1667.81 2775.5,1669.5 Z"/></g>
<g><path style="opacity:1" fill="#000000" d="M 1290.5,1517.5 C 1329.03,1515.82 1353.19,1533.49 1363,1570.5C 1365.7,1603.75 1351.87,1626.92 1321.5,1640C 1289.62,1648.82 1264.45,1639.65 1246,1612.5C 1229.64,1577.29 1237.14,1548.45 1268.5,1526C 1275.61,1522.25 1282.94,1519.41 1290.5,1517.5 Z"/></g>
<g><path style="opacity:1" fill="#000000" d="M 2688.5,1517.5 C 2727.03,1515.82 2751.19,1533.49 2761,1570.5C 2763.7,1603.75 2749.87,1626.92 2719.5,1640C 2687.62,1648.82 2662.45,1639.65 2644,1612.5C 2627.64,1577.29 2635.14,1548.45 2666.5,1526C 2673.61,1522.25 2680.94,1519.41 2688.5,1517.5 Z"/></g>
<g><path style="opacity:1" fill="#000000" d="M 1992.5,1646.5 C 2020.69,1645.21 2039.19,1657.88 2048,1684.5C 2049.15,1716.63 2049.65,1748.8 2049.5,1781C 2049.33,1811.5 2049.17,1842 2049,1872.5C 2044.17,1896 2030,1910.17 2006.5,1915C 1933.03,1913.8 1877.87,1944.63 1841,2007.5C 1814.04,2063.8 1815.37,2119.46 1845,2174.5C 1875.4,2223.18 1919.23,2251.34 1976.5,2259C 2045.7,2262.48 2099.87,2235.98 2139,2179.5C 2154.29,2154.63 2162.96,2127.63 2165,2098.5C 2175.95,2067.77 2197.45,2055.94 2229.5,2063C 2255.86,2074.53 2267.02,2094.7 2263,2123.5C 2250.39,2205.6 2209.89,2269.77 2141.5,2316C 2058.56,2366.3 1972.22,2372.96 1882.5,2336C 1790.41,2291.4 1737.24,2218.23 1723,2116.5C 1715.51,2021.24 1747.35,1942.08 1818.5,1879C 1856.62,1847.28 1900.29,1827.44 1949.5,1819.5C 1949.03,1774.46 1949.53,1729.46 1951,1684.5C 1957.41,1663.58 1971.24,1650.92 1992.5,1646.5 Z"/></g>
<g><path style="opacity:1" fill="#010101" d="M 449.5,2499.5 C 1433.09,2672.98 2416.76,2846.31 3400.5,3019.5C 3401.83,3019.83 3403.17,3020.17 3404.5,3020.5C 3402.07,3031.75 3400.07,3043.09 3398.5,3054.5C 2413.56,2880.84 1428.56,2707.51 443.5,2534.5C 445.177,2522.77 447.177,2511.1 449.5,2499.5 Z"/></g>
</svg>
