<?xml version="1.0" encoding="UTF-8"?>
<!DOCTYPE svg PUBLIC "-//W3C//DTD SVG 1.1//EN" "http://www.w3.org/Graphics/SVG/1.1/DTD/svg11.dtd">
<svg xmlns="http://www.w3.org/2000/svg" version="1.1" width="376px" height="375px" style="shape-rendering:geometricPrecision; text-rendering:geometricPrecision; image-rendering:optimizeQuality; fill-rule:evenodd; clip-rule:evenodd" xmlns:xlink="http://www.w3.org/1999/xlink">
<g><path style="opacity:1" fill="#4ade7f" d="M 118.5,-0.5 C 128.833,-0.5 139.167,-0.5 149.5,-0.5C 208.855,9.61095 247.021,43.611 264,101.5C 273.179,144.276 264.345,182.776 237.5,217C 242.3,222.802 247.467,228.302 253,233.5C 265.239,228.955 276.739,230.455 287.5,238C 314.667,265.167 341.833,292.333 369,319.5C 371.74,323.647 373.907,327.98 375.5,332.5C 375.5,337.833 375.5,343.167 375.5,348.5C 371.175,361.491 362.509,370.158 349.5,374.5C 344.5,374.5 339.5,374.5 334.5,374.5C 329.045,373.106 324.045,370.606 319.5,367C 292.333,339.833 265.167,312.667 238,285.5C 231.008,274.922 229.842,263.755 234.5,252C 229.319,246.652 223.985,241.485 218.5,236.5C 177.091,268.25 131.758,275.083 82.5,257C 32.4379,234.107 4.77125,195.274 -0.5,140.5C -0.5,135.5 -0.5,130.5 -0.5,125.5C 5.88065,65.944 37.214,25.7773 93.5,5C 101.874,2.69463 110.207,0.861293 118.5,-0.5 Z M 120.5,25.5 C 165.927,22.4645 201.094,39.7978 226,77.5C 249.394,121.377 246.061,163.044 216,202.5C 181.813,238.922 140.98,249.088 93.5,233C 51.0955,213.235 28.4288,179.902 25.5,133C 30.5226,73.4844 62.1892,37.651 120.5,25.5 Z M 264.5,256.5 C 266.924,257.03 269.257,257.864 271.5,259C 296.972,285.472 322.805,311.639 349,337.5C 350.457,343.891 347.957,347.891 341.5,349.5C 340.205,348.902 338.872,348.402 337.5,348C 311.333,321.833 285.167,295.667 259,269.5C 256.449,263.271 258.283,258.938 264.5,256.5 Z"/></g>
<g><path style="opacity:1" fill="#4ade7f" d="M 129.5,78.5 C 132.187,78.3359 134.854,78.5026 137.5,79C 139.667,79.8333 141.167,81.3333 142,83.5C 142.5,97.1626 142.667,110.829 142.5,124.5C 156.171,124.333 169.837,124.5 183.5,125C 188.452,128.4 189.618,132.9 187,138.5C 186.097,139.701 184.931,140.535 183.5,141C 169.837,141.5 156.171,141.667 142.5,141.5C 142.667,155.171 142.5,168.837 142,182.5C 139.103,187.155 134.937,188.655 129.5,187C 127.19,185.363 125.69,183.196 125,180.5C 124.5,167.504 124.333,154.504 124.5,141.5C 110.829,141.667 97.1626,141.5 83.5,141C 78.1667,135.667 78.1667,130.333 83.5,125C 97.1626,124.5 110.829,124.333 124.5,124.5C 124.333,111.496 124.5,98.4957 125,85.5C 125.904,82.7666 127.404,80.4333 129.5,78.5 Z"/></g>
</svg>
